<?xml version="1.0" encoding="utf-8"?>
<!-- Generator: Adobe Illustrator 23.0.0, SVG Export Plug-In . SVG Version: 6.00 Build 0)  -->
<svg version="1.1" id="Capa_1" xmlns="http://www.w3.org/2000/svg" xmlns:xlink="http://www.w3.org/1999/xlink" x="0px" y="0px"
	 viewBox="0 0 284.9 284.9" style="enable-background:new 0 0 284.9 284.9;" xml:space="preserve">
<style type="text/css">
	.st0{fill:#FFFFFF;}
</style>
<g>
	<path class="st0" d="M110.5,142.5L222.7,30.3c1.9-1.9,2.9-4.1,2.9-6.6s-1-4.7-2.9-6.6L208.4,2.9C206.5,1,204.3,0,201.9,0
		c-2.5,0-4.7,1-6.6,2.9l-133,133c-1.9,1.9-2.9,4.1-2.9,6.6c0,2.5,0.9,4.7,2.9,6.6l133,133c1.9,1.9,4.1,2.9,6.6,2.9
		c2.5,0,4.7-1,6.6-2.9l14.3-14.3c1.9-1.9,2.9-4.1,2.9-6.6c0-2.5-0.9-4.7-2.9-6.6L110.5,142.5z"/>
</g>
</svg>
