<?xml version="1.0" encoding="utf-8"?>
<!-- Generator: Adobe Illustrator 23.0.0, SVG Export Plug-In . SVG Version: 6.00 Build 0)  -->
<svg version="1.1" id="bold" xmlns="http://www.w3.org/2000/svg" xmlns:xlink="http://www.w3.org/1999/xlink" x="0px" y="0px"
	 viewBox="0 0 512 512" style="enable-background:new 0 0 512 512;" xml:space="preserve">
<style type="text/css">
	.st0{fill:#FFFFFF;}
</style>
<path class="st0" d="M85.3,144c0-55.9,45.5-101.3,101.3-101.3h194.8C374.5,18.1,352.1,0,325.3,0H80C47.6,0,21.3,26.3,21.3,58.7
	v330.7c0,32.4,26.3,58.7,58.7,58.7h5.3V144z"/>
<path class="st0" d="M432,85.3H186.7c-32.4,0-58.7,26.3-58.7,58.7v309.3c0,32.4,26.3,58.7,58.7,58.7H432c32.4,0,58.7-26.3,58.7-58.7
	V144C490.7,111.6,464.4,85.3,432,85.3z M389.3,448h-160c-8.8,0-16-7.2-16-16c0-8.8,7.2-16,16-16h160c8.8,0,16,7.2,16,16
	C405.3,440.8,398.2,448,389.3,448z M389.3,362.7h-160c-8.8,0-16-7.2-16-16c0-8.8,7.2-16,16-16h160c8.8,0,16,7.2,16,16
	C405.3,355.5,398.2,362.7,389.3,362.7z M389.3,288h-160c-8.8,0-16-7.2-16-16c0-8.8,7.2-16,16-16h160c8.8,0,16,7.2,16,16
	C405.3,280.8,398.2,288,389.3,288z M389.3,202.7h-160c-8.8,0-16-7.2-16-16s7.2-16,16-16h160c8.8,0,16,7.2,16,16
	S398.2,202.7,389.3,202.7z"/>
</svg>
